<svg id="Layer_5" enable-background="new 0 0 64 64" height="512" viewBox="0 0 64 64" width="512" xmlns="http://www.w3.org/2000/svg" xmlns:xlink="http://www.w3.org/1999/xlink"><linearGradient id="SVGID_1_" gradientUnits="userSpaceOnUse" x1="32" x2="32" y1="63" y2="1"><stop offset="0" stop-color="#9f2fff"/><stop offset="1" stop-color="#0bb1d3"/></linearGradient><path d="m63 15c0-3.309-2.691-6-6-6-1.797 0-3.407.797-4.507 2.052l-4.687-2.885c.114-.371.194-.758.194-1.167 0-2.206-1.794-4-4-4-1.627 0-3.025.98-3.649 2.378l-4.387-.731c-.182-2.039-1.879-3.647-3.964-3.647-2.206 0-4 1.794-4 4 0 1.022.397 1.945 1.029 2.653l-1.786 2.679c-1.559-.849-3.346-1.332-5.243-1.332-3.408 0-6.459 1.559-8.479 4h-9.521c-1.654 0-3 1.346-3 3v44c0 1.654 1.346 3 3 3h36c1.654 0 3-1.346 3-3v-44c0-1.654-1.346-3-3-3h-9.521c-.471-.569-1.001-1.087-1.575-1.552l1.79-2.685c.411.143.846.237 1.306.237 1.627 0 3.025-.98 3.649-2.378l4.387.731c.182 2.039 1.879 3.647 3.964 3.647 1.075 0 2.048-.431 2.767-1.123l4.673 2.876c-.281.695-.44 1.452-.44 2.247 0 2.466 1.496 4.587 3.627 5.509l-3.627 7.255v30.236c0 2.757 2.243 5 5 5h2c2.757 0 5-2.243 5-5v-30.236l-3.627-7.255c2.131-.922 3.627-3.043 3.627-5.509zm-23 0c.551 0 1 .448 1 1v44c0 .552-.449 1-1 1h-36c-.551 0-1-.448-1-1v-44c0-.552.449-1 1-1h8.214c-.325.634-.59 1.302-.788 2h-6.426v42h34v-42h-6.426c-.198-.698-.463-1.366-.788-2zm-7.051 4h4.051v6h-5.202c.788-1.537 1.202-3.235 1.202-5 0-.338-.021-.67-.051-1zm-25.949 8h6v6h-6zm0 8h6v6h-6zm16 8h6v6h-6zm-2 6h-6v-6h6zm2-8v-6h6v6zm-2 0h-6v-6h6zm-14 2h6v6h-6zm0 8h6v6h-6zm8 0h6v6h-6zm8 0h6v6h-6zm8 0h6v6h-6zm6-2h-6v-6h6zm0-8h-6v-6h6zm0-8h-6v-6h6zm-8 0h-6v-6h6zm-8 0h-6v-6h6zm-14-8v-6h4.051c-.03.33-.051.662-.051 1 0 1.765.414 3.463 1.202 5zm24-5c0 1.803-.529 3.519-1.523 5h-6.477c1.654 0 3-1.346 3-3s-1.346-3-3-3h-2c-.551 0-1-.448-1-1s.449-1 1-1h2c.551 0 1 .448 1 1h2c0-1.654-1.346-3-3-3v-2h-2v2c-1.654 0-3 1.346-3 3s1.346 3 3 3h2c.551 0 1 .448 1 1s-.449 1-1 1h-2c-.551 0-1-.448-1-1h-2c0 1.654 1.346 3 3 3h-6.477c-.994-1.481-1.523-3.197-1.523-5 0-4.963 4.038-9 9-9s9 4.037 9 9zm1-13c-1.103 0-2-.897-2-2s.897-2 2-2 2 .897 2 2-.897 2-2 2zm12 2c-1.103 0-2-.897-2-2s.897-2 2-2 2 .897 2 2-.897 2-2 2zm9 40v-20h8v20zm8 2v2h-8v-2zm-7.382-24 2.829-5.658c.211-.422.895-.422 1.105 0l2.83 5.658zm4.382 34h-2c-1.654 0-3-1.346-3-3v-3h8v3c0 1.654-1.346 3-3 3zm-1-42c-2.206 0-4-1.794-4-4s1.794-4 4-4 4 1.794 4 4-1.794 4-4 4z" fill="url(#SVGID_1_)"/></svg>